<svg width="107" height="163" viewBox="0 0 107 163" fill="none" xmlns="http://www.w3.org/2000/svg">
<g clip-path="url(#clip0_102_5)">
<path d="M16.0508 85.5997C15.0665 85.5997 14.2676 86.3986 14.2676 87.3829C14.2676 88.3672 15.0665 89.1662 16.0508 89.1662H33.884C34.8683 89.1662 35.6672 88.3672 35.6672 87.3829C35.6672 86.3986 34.8683 85.5997 33.884 85.5997H32.1007V42.7999H33.884C34.8683 42.7999 35.6672 42.001 35.6672 41.0167C35.6672 40.0323 34.8683 39.2334 33.884 39.2334H16.0508C15.0665 39.2334 14.2676 40.0323 14.2676 41.0167C14.2676 42.001 15.0665 42.7999 16.0508 42.7999H17.8341V85.5997H16.0508ZM21.4008 42.7999H28.534V85.5997H21.4008V42.7999Z" fill="black"/>
<path d="M1.78365 35.6664H105.216C106.013 35.6664 106.712 35.1385 106.932 34.3717C107.149 33.6066 106.834 32.788 106.156 32.3674L54.4399 0.267551C53.8639 -0.0891835 53.1362 -0.0891835 52.5603 0.267551L0.843857 32.3674C0.166125 32.7883 -0.14944 33.6068 0.0681114 34.3717C0.287335 35.1385 0.986592 35.6664 1.78365 35.6664ZM53.5001 3.88233L98.9623 32.0999H8.03768L53.5001 3.88233Z" fill="black"/>
<path d="M7.13281 94.5157C7.13281 95.5 7.93176 96.2989 8.91607 96.2989H98.0823C99.0666 96.2989 99.8655 95.5 99.8655 94.5157C99.8655 93.5314 99.0666 92.7324 98.0823 92.7324H8.91607C7.93176 92.7324 7.13281 93.5314 7.13281 94.5157Z" fill="black"/>
<path d="M105.216 99.8662H1.78325C0.798943 99.8662 0 100.665 0 101.649V105.216C0 106.2 0.798943 106.999 1.78325 106.999C2.76756 106.999 3.56651 106.2 3.56651 105.216V103.433H103.433V105.216C103.433 106.2 104.232 106.999 105.216 106.999C106.2 106.999 106.999 106.2 106.999 105.216V101.649C106.999 100.665 106.2 99.8662 105.216 99.8662Z" fill="black"/>
<path d="M44.584 85.5997C43.5997 85.5997 42.8008 86.3986 42.8008 87.3829C42.8008 88.3672 43.5997 89.1662 44.584 89.1662H62.4172C63.4015 89.1662 64.2004 88.3672 64.2004 87.3829C64.2004 86.3986 63.4015 85.5997 62.4172 85.5997H60.6339V42.7999H62.4172C63.4015 42.7999 64.2004 42.001 64.2004 41.0167C64.2004 40.0323 63.4015 39.2334 62.4172 39.2334H44.584C43.5997 39.2334 42.8008 40.0323 42.8008 41.0167C42.8008 42.001 43.5997 42.7999 44.584 42.7999H46.3673V85.5997H44.584ZM49.934 42.7999H57.0672V85.5997H49.934V42.7999Z" fill="black"/>
<path d="M73.1172 85.5997C72.1329 85.5997 71.334 86.3986 71.334 87.3829C71.334 88.3672 72.1329 89.1662 73.1172 89.1662H90.9504C91.9347 89.1662 92.7337 88.3672 92.7337 87.3829C92.7337 86.3986 91.9347 85.5997 90.9504 85.5997H89.1671V42.7999H90.9504C91.9347 42.7999 92.7337 42.001 92.7337 41.0167C92.7337 40.0323 91.9347 39.2334 90.9504 39.2334H73.1172C72.1329 39.2334 71.334 40.0323 71.334 41.0167C71.334 42.001 72.1329 42.7999 73.1172 42.7999H74.9005V85.5997H73.1172ZM78.4672 42.7999H85.6004V85.5997H78.4672V42.7999Z" fill="black"/>
</g>
<path d="M18.2627 132.64C19.276 132.8 20.196 133.213 21.0227 133.88C21.876 134.547 22.5427 135.373 23.0227 136.36C23.5293 137.347 23.7827 138.4 23.7827 139.52C23.7827 140.933 23.4227 142.213 22.7027 143.36C21.9827 144.48 20.9293 145.373 19.5427 146.04C18.1827 146.68 16.5693 147 14.7027 147H4.30266V119.12H14.3027C16.196 119.12 17.8093 119.44 19.1427 120.08C20.476 120.693 21.476 121.533 22.1427 122.6C22.8093 123.667 23.1427 124.867 23.1427 126.2C23.1427 127.853 22.6893 129.227 21.7827 130.32C20.9027 131.387 19.7293 132.16 18.2627 132.64ZM7.94266 131.16H14.0627C15.7693 131.16 17.0893 130.76 18.0227 129.96C18.956 129.16 19.4227 128.053 19.4227 126.64C19.4227 125.227 18.956 124.12 18.0227 123.32C17.0893 122.52 15.7427 122.12 13.9827 122.12H7.94266V131.16ZM14.3827 144C16.196 144 17.6093 143.573 18.6227 142.72C19.636 141.867 20.1427 140.68 20.1427 139.16C20.1427 137.613 19.6093 136.4 18.5427 135.52C17.476 134.613 16.0493 134.16 14.2627 134.16H7.94266V144H14.3827ZM45.3139 140.8H33.1539L30.9139 147H27.0739L37.1539 119.28H41.3539L51.3939 147H47.5539L45.3139 140.8ZM44.2739 137.84L39.2339 123.76L34.1939 137.84H44.2739ZM77.707 147H74.067L59.427 124.8V147H55.787V119.08H59.427L74.067 141.24V119.08H77.707V147ZM99.032 147L87.552 134.28V147H83.912V119.12H87.552V132.04L99.072 119.12H103.672L91.032 133.08L103.792 147H99.032Z" fill="black"/>
<defs>
<clipPath id="clip0_102_5">
<rect width="107" height="107" fill="white"/>
</clipPath>
</defs>
</svg>
