<svg width="77" height="77" viewBox="0 0 77 77" fill="none" xmlns="http://www.w3.org/2000/svg">
<path d="M38.885 41.0024C38.6604 40.9704 38.3717 40.9704 38.115 41.0024C32.4683 40.8099 27.9766 36.1899 27.9766 30.5111C27.9766 24.704 32.6608 19.9878 38.5 19.9878C44.3071 19.9878 49.0233 24.704 49.0233 30.5111C48.9912 36.1899 44.5317 40.8099 38.885 41.0024Z" stroke="#292D32" stroke-opacity="0.8" stroke-width="4.8125" stroke-linecap="round" stroke-linejoin="round"/>
<path d="M60.1233 62.1779C54.4125 67.4075 46.8408 70.5837 38.4991 70.5837C30.1575 70.5837 22.5858 67.4075 16.875 62.1779C17.1958 59.162 19.1208 56.2104 22.5538 53.9004C31.3446 48.0612 45.7179 48.0612 54.4445 53.9004C57.8775 56.2104 59.8025 59.162 60.1233 62.1779Z" stroke="#292D32" stroke-opacity="0.8" stroke-width="4.8125" stroke-linecap="round" stroke-linejoin="round"/>
<path d="M38.4993 70.5832C56.2183 70.5832 70.5827 56.2188 70.5827 38.4998C70.5827 20.7807 56.2183 6.4165 38.4993 6.4165C20.7802 6.4165 6.41602 20.7807 6.41602 38.4998C6.41602 56.2188 20.7802 70.5832 38.4993 70.5832Z" stroke="#292D32" stroke-opacity="0.8" stroke-width="4.8125" stroke-linecap="round" stroke-linejoin="round"/>
</svg>
